<svg width="532" height="1156" viewBox="0 0 532 1156" fill="none" xmlns="http://www.w3.org/2000/svg">
<path d="M159.5 1109.5C103.167 1109.5 57.5 1063.83 57.5 1007.5L57.5 159.5C57.5 103.167 103.167 57.5 159.5 57.5H516.5V1109.5H159.5Z" fill="#535EF9"/>
<path d="M516.5 44.5H144.5C88.167 44.5 42.5 90.167 42.5 146.5L42.5 1019.5C42.5 1075.83 88.167 1121.5 144.5 1121.5H516.5" stroke="#535EF9" stroke-opacity="0.5" stroke-width="2"/>
<path d="M516.5 20.5H120.5C64.167 20.5 18.5 66.1669 18.5 122.5L18.5 1036.5C18.5 1092.83 64.1669 1138.5 120.5 1138.5H516.5" stroke="#535EF9" stroke-opacity="0.5" stroke-width="2"/>
<path d="M516.5 1.50012H103.5C47.167 1.50012 1.5 47.167 1.5 103.5L1.5 1052.5C1.5 1108.83 47.167 1154.5 103.5 1154.5H516.5" stroke="#535EF9" stroke-opacity="0.5" stroke-width="2"/>
</svg>
