<svg width="220" height="284" viewBox="0 0 220 284" fill="none" xmlns="http://www.w3.org/2000/svg">
<g filter="url(#filter0_b_1_13)">
<path d="M28.5461 7V273.697C28.5461 273.697 170.63 273.697 212.654 273.697" stroke="#67B6FF" stroke-width="5"/>
</g>
<g filter="url(#filter1_b_1_13)">
<path d="M31.1543 9.5C70.1543 11 -49.3457 151 51.6544 232.5C152.654 314 166.154 166.5 210.654 273" stroke="#67B6FF" stroke-width="5"/>
</g>
<g filter="url(#filter2_f_1_13)">
<path d="M28.5461 7V273.697C28.5461 273.697 170.63 273.697 212.654 273.697" stroke="#67B6FF" stroke-width="5"/>
</g>
<g filter="url(#filter3_f_1_13)">
<path d="M31.1543 9.5C70.1543 11 -49.3457 151 51.6544 232.5C152.654 314 166.154 166.5 210.654 273" stroke="#67B6FF" stroke-width="5"/>
</g>
<defs>
<filter id="filter0_b_1_13" x="6.04608" y="-13" width="226.608" height="309.197" filterUnits="userSpaceOnUse" color-interpolation-filters="sRGB">
<feFlood flood-opacity="0" result="BackgroundImageFix"/>
<feGaussianBlur in="BackgroundImage" stdDeviation="10"/>
<feComposite in2="SourceAlpha" operator="in" result="effect1_backgroundBlur_1_13"/>
<feBlend mode="normal" in="SourceGraphic" in2="effect1_backgroundBlur_1_13" result="shape"/>
</filter>
<filter id="filter1_b_1_13" x="-12.4962" y="-12.9981" width="245.457" height="306.962" filterUnits="userSpaceOnUse" color-interpolation-filters="sRGB">
<feFlood flood-opacity="0" result="BackgroundImageFix"/>
<feGaussianBlur in="BackgroundImage" stdDeviation="10"/>
<feComposite in2="SourceAlpha" operator="in" result="effect1_backgroundBlur_1_13"/>
<feBlend mode="normal" in="SourceGraphic" in2="effect1_backgroundBlur_1_13" result="shape"/>
</filter>
<filter id="filter2_f_1_13" x="19.0461" y="0" width="200.608" height="283.197" filterUnits="userSpaceOnUse" color-interpolation-filters="sRGB">
<feFlood flood-opacity="0" result="BackgroundImageFix"/>
<feBlend mode="normal" in="SourceGraphic" in2="BackgroundImageFix" result="shape"/>
<feGaussianBlur stdDeviation="3.5" result="effect1_foregroundBlur_1_13"/>
</filter>
<filter id="filter3_f_1_13" x="0.503815" y="0.00186157" width="219.457" height="280.962" filterUnits="userSpaceOnUse" color-interpolation-filters="sRGB">
<feFlood flood-opacity="0" result="BackgroundImageFix"/>
<feBlend mode="normal" in="SourceGraphic" in2="BackgroundImageFix" result="shape"/>
<feGaussianBlur stdDeviation="3.5" result="effect1_foregroundBlur_1_13"/>
</filter>
</defs>
</svg>
